<svg width="16" height="16" viewBox="0 0 16 16" fill="none" xmlns="http://www.w3.org/2000/svg">
<path fill-rule="evenodd" clip-rule="evenodd" d="M6.79733 3.55547C6.79733 2.32817 5.79788 1.33325 4.56501 1.33325C3.33213 1.33325 2.33268 2.32817 2.33268 3.55547C2.33268 4.78277 3.33213 5.7777 4.56501 5.7777C5.18754 5.7777 5.75016 5.52389 6.15463 5.11557L9.24491 7.21962C9.21633 7.36157 9.20137 7.50822 9.20137 7.65804C9.20137 7.95472 9.25999 8.2383 9.36629 8.49749L5.97779 10.7238C5.59325 10.4106 5.10113 10.2221 4.56501 10.2221C3.33213 10.2221 2.33268 11.2171 2.33268 12.4444C2.33268 13.6717 3.33213 14.6666 4.56501 14.6666C5.79788 14.6666 6.79733 13.6717 6.79733 12.4444C6.79733 12.1229 6.72852 11.8169 6.60487 11.5407L9.96597 9.33238C10.358 9.67314 10.8716 9.88026 11.4337 9.88026C12.6666 9.88026 13.666 8.88534 13.666 7.65804C13.666 6.43074 12.6666 5.43582 11.4337 5.43582C10.7247 5.43582 10.0937 5.76475 9.68505 6.2767L6.69007 4.23753C6.75973 4.02231 6.79733 3.79298 6.79733 3.55547Z" fill="white"/>
</svg>
