<svg width="18" height="18" viewBox="0 0 18 18" fill="none" xmlns="http://www.w3.org/2000/svg">
<g clip-path="url(#clip0_6_1527)">
<path fill-rule="evenodd" clip-rule="evenodd" d="M16.5 9C16.5 13.1421 13.1421 16.5 9 16.5C4.85786 16.5 1.5 13.1421 1.5 9C1.5 4.85786 4.85786 1.5 9 1.5C13.1421 1.5 16.5 4.85786 16.5 9ZM11.25 6.75C11.25 7.99264 10.2426 9 9 9C7.75736 9 6.75 7.99264 6.75 6.75C6.75 5.50736 7.75736 4.5 9 4.5C10.2426 4.5 11.25 5.50736 11.25 6.75ZM8.99999 15.375C10.338 15.375 11.5798 14.9628 12.6052 14.2584C13.0581 13.9473 13.2516 13.3547 12.9883 12.8724C12.4425 11.8727 11.3177 11.25 8.99995 11.25C6.68227 11.25 5.55748 11.8727 5.01161 12.8724C4.74828 13.3546 4.94183 13.9472 5.39472 14.2584C6.42014 14.9628 7.66192 15.375 8.99999 15.375Z" fill="#1C274C" fill-opacity="0.5"/>
</g>
<defs>
<clipPath id="clip0_6_1527">
<rect width="18" height="18" fill="white"/>
</clipPath>
</defs>
</svg>
